<svg xmlns="http://www.w3.org/2000/svg" viewBox="0 0 600 700">
  <!-- Background -->
  <rect width="600" height="700" fill="#f5f5f5"/>
  
  <!-- Memory address coordinate axis -->
  <line x1="80" y1="50" x2="80" y2="650" stroke="#333" stroke-width="2"/>
  <polygon points="80,40 75,50 85,50" fill="#333"/> <!-- Top arrow -->
  <polygon points="80,660 75,650 85,650" fill="#333"/> <!-- Bottom arrow -->
  <text x="40" y="45" font-family="Arial" font-size="14" text-anchor="middle">0xFFFFFFFF</text>
  <text x="40" y="660" font-family="Arial" font-size="14" text-anchor="middle">0x00000000</text>
  
  <!-- Memory region blocks -->
  <g>
    <!-- Kernel Space -->
    <rect x="80" y="50" width="440" height="80" fill="#d3d3d3" stroke="#666" stroke-width="2"/>
    <text x="300" y="90" font-family="Arial" font-size="16" font-weight="bold" text-anchor="middle">Kernel Space</text>
    <text x="300" y="110" font-family="Arial" font-size="12" text-anchor="middle">Reserved for operating system</text>
  </g>
  
  <g>
    <!-- Stack -->
    <rect x="80" y="150" width="440" height="100" fill="#e0e0e0" stroke="#666" stroke-width="2"/>
    <text x="300" y="180" font-family="Arial" font-size="16" font-weight="bold" text-anchor="middle">Stack</text>
    <text x="300" y="200" font-family="Arial" font-size="12" text-anchor="middle">Function calls, local variables</text>
    <text x="300" y="220" font-family="Arial" font-size="12" text-anchor="middle">LIFO (Last In First Out) structure</text>
    
    <!-- Stack growth direction - more intuitive arrow -->
    <path d="M520,150 L540,150 L540,250 L520,250" fill="none" stroke="#333" stroke-width="2"/>
    <polygon points="530,170 520,150 540,150" fill="#333"/>
    <text x="550" y="200" font-family="Arial" font-size="12">Growth</text>
    
    <!-- Stack terminology clarification - FIXED POSITIONS -->
    <text x="85" y="165" font-family="Arial" font-size="10" fill="#666">End of stack (highest address)</text>
    <text x="85" y="240" font-family="Arial" font-size="10" fill="#666">Start of stack (lowest address)</text>
  </g>
  
  <g>
    <!-- Memory Mapping Region -->
    <rect x="80" y="270" width="440" height="80" fill="#d8d8d8" stroke="#666" stroke-width="2"/>
    <text x="300" y="310" font-family="Arial" font-size="16" font-weight="bold" text-anchor="middle">Memory Mapping Region</text>
    <text x="300" y="330" font-family="Arial" font-size="12" text-anchor="middle">Shared libraries, file mappings</text>
  </g>
  
  <g>
    <!-- Heap -->
    <rect x="80" y="370" width="440" height="100" fill="#e0e0e0" stroke="#666" stroke-width="2"/>
    <text x="300" y="400" font-family="Arial" font-size="16" font-weight="bold" text-anchor="middle">Heap</text>
    <text x="300" y="420" font-family="Arial" font-size="12" text-anchor="middle">Dynamic memory allocation (malloc, calloc)</text>
    <text x="300" y="440" font-family="Arial" font-size="12" text-anchor="middle">Size can change during program execution</text>
    
    <!-- Heap growth direction - more intuitive arrow -->
    <path d="M520,370 L540,370 L540,470 L520,470" fill="none" stroke="#333" stroke-width="2"/>
    <polygon points="530,450 520,470 540,470" fill="#333"/>
    <text x="550" y="420" font-family="Arial" font-size="12">Growth</text>
  </g>
  
  <g>
    <!-- BSS Segment -->
    <rect x="80" y="490" width="440" height="50" fill="#d0d0d0" stroke="#666" stroke-width="2"/>
    <text x="300" y="520" font-family="Arial" font-size="16" font-weight="bold" text-anchor="middle">BSS Segment</text>
    <text x="300" y="535" font-family="Arial" font-size="12" text-anchor="middle">Uninitialized global/static variables (int global_var;)</text>
  </g>
  
  <g>
    <!-- Data Segment -->
    <rect x="80" y="550" width="440" height="50" fill="#c8c8c8" stroke="#666" stroke-width="2"/>
    <text x="300" y="580" font-family="Arial" font-size="16" font-weight="bold" text-anchor="middle">Data Segment</text>
    <text x="300" y="595" font-family="Arial" font-size="12" text-anchor="middle">Initialized global/static variables (int global_var = 5;)</text>
  </g>
  
  <g>
    <!-- Text/Code Segment -->
    <rect x="80" y="610" width="440" height="50" fill="#c0c0c0" stroke="#666" stroke-width="2"/>
    <text x="300" y="640" font-family="Arial" font-size="16" font-weight="bold" text-anchor="middle">Text Segment</text>
    <text x="300" y="655" font-family="Arial" font-size="12" text-anchor="middle">Executable code, constant data (read-only)</text>
  </g>
  
  <!-- /proc/PID/maps reference info -->
  <g>
    <rect x="80" y="10" width="440" height="30" fill="#f0f0f0" stroke="#999" stroke-width="1"/>
    <text x="300" y="30" font-family="Arial" font-size="14" text-anchor="middle" font-style="italic">Memory layout can be analyzed using /proc/[PID]/maps file</text>
  </g>
  
  <!-- Legend -->
  <g transform="translate(10, 670)">
    <text x="0" y="0" font-family="Arial" font-size="10">Address space: 32-bit - 4GB (0x00000000 ~ 0xFFFFFFFF) | 64-bit - 16EB</text>
  </g>
</svg>
